<?xml version="1.0" standalone="no"?>
<!DOCTYPE svg PUBLIC "-//W3C//DTD SVG 20010904//EN"
 "http://www.w3.org/TR/2001/REC-SVG-20010904/DTD/svg10.dtd">
<svg version="1.0" xmlns="http://www.w3.org/2000/svg"
 width="1280.000000pt" height="681.000000pt" viewBox="0 0 1280.000000 681.000000"
 preserveAspectRatio="xMidYMid meet">
<g style="fill:skyblue" transform="translate(0.000000,681.000000) scale(0.100000,-0.100000)"
fill="skyblue" stroke="none">
<path style="fill:skyblue" d="M10705 6394 c-115 -13 -353 -58 -445 -85 -188 -55 -590 -185 -825
-267 -423 -147 -968 -320 -1030 -326 -125 -12 -569 -142 -850 -248 -150 -56
-364 -157 -383 -181 -23 -27 -11 -69 23 -80 47 -15 67 -38 61 -67 -3 -20 0
-28 17 -35 15 -7 22 -19 22 -38 1 -17 10 -33 24 -43 16 -12 22 -23 18 -40 -3
-16 0 -24 10 -24 13 0 34 -39 27 -51 -2 -4 5 -9 16 -12 14 -4 20 -14 20 -32 0
-15 7 -33 16 -40 13 -9 14 -16 5 -33 -17 -32 -13 -42 14 -42 20 0 25 -5 25
-25 0 -18 5 -25 20 -25 24 0 26 -13 5 -30 -18 -15 -11 -30 16 -30 20 0 26 -15
9 -25 -16 -10 -12 -23 11 -30 12 -4 18 -12 15 -21 -3 -9 1 -14 14 -14 13 0 18
-5 14 -15 -4 -10 0 -15 10 -15 13 0 15 -6 10 -26 l-6 -25 38 16 c51 22 184 36
184 19 0 -6 -38 -29 -85 -50 l-84 -38 85 -92 c46 -51 83 -98 82 -106 -5 -21 9
-17 141 41 110 49 124 53 133 38 5 -9 13 -17 18 -17 4 0 44 24 87 53 68 47 93
57 203 85 145 36 180 42 180 32 0 -4 -7 -23 -15 -43 -8 -19 -18 -85 -21 -145
-4 -61 -10 -116 -14 -122 -8 -13 -248 -76 -454 -119 l-129 -28 -97 94 c-54 51
-100 93 -104 93 -3 0 -6 -42 -6 -94 0 -122 -8 -144 -50 -138 -56 8 -110 -69
-110 -156 0 -50 0 -50 -85 -125 -201 -177 -377 -209 -586 -107 -53 26 -106 57
-117 68 -13 13 -35 22 -51 22 -17 0 -148 -41 -293 -91 -145 -50 -286 -99 -314
-108 -42 -14 -66 -16 -148 -8 -122 11 -130 8 -123 -42 l5 -39 -452 -151 c-248
-82 -603 -198 -789 -256 -187 -59 -427 -138 -535 -176 -232 -83 -560 -182
-652 -197 -226 -39 -168 -44 -865 83 -346 63 -656 120 -687 126 -56 11 -57 12
-63 53 -27 157 -173 385 -290 451 -131 74 -238 99 -357 84 -182 -22 -333 -96
-469 -229 -48 -47 -70 -81 -115 -175 l-56 -116 4 -217 c6 -264 24 -361 105
-570 31 -78 54 -144 52 -146 -2 -2 -57 -35 -123 -75 -264 -161 -445 -314 -446
-377 0 -38 19 -46 82 -33 24 4 106 20 183 34 254 47 429 99 496 146 26 18 26
18 55 -12 89 -94 334 -234 469 -268 44 -12 118 -24 165 -28 l85 -8 5 -40 c4
-36 8 -40 30 -36 14 2 57 4 95 5 68 1 70 0 73 -24 2 -14 8 -30 14 -37 13 -16
-81 -153 -140 -201 -93 -78 -122 -105 -122 -113 0 -10 48 -12 103 -2 33 5 48
18 115 101 131 162 116 149 146 132 21 -11 29 -11 39 -1 9 10 7 16 -11 31
l-24 19 36 59 36 58 278 23 c152 12 482 40 732 62 250 21 489 41 530 45 41 3
185 18 320 34 135 16 315 36 400 45 800 84 2104 250 2240 285 20 5 89 16 155
25 66 8 135 17 153 20 32 6 32 6 32 -35 0 -22 5 -40 10 -40 6 0 56 7 111 17
l100 16 -3 36 c-3 33 -1 36 27 39 17 2 152 28 301 58 150 30 280 54 290 54 16
0 15 -2 -4 -16 -22 -15 -168 -226 -226 -326 -15 -26 -33 -69 -39 -95 -10 -39
-18 -51 -44 -63 -33 -15 -47 -38 -15 -25 33 15 480 136 757 206 154 39 308 79
342 89 88 27 755 189 988 240 71 16 92 18 101 8 25 -26 164 -203 164 -209 0
-4 -20 -29 -44 -55 -50 -57 -77 -107 -99 -184 -26 -93 -30 -160 -13 -225 13
-50 13 -60 1 -69 -8 -6 -48 -36 -89 -66 -42 -30 -76 -58 -76 -63 0 -4 34 -78
75 -163 l75 -157 81 7 c44 4 102 14 127 21 25 8 47 13 48 12 1 -1 13 -30 27
-65 49 -119 225 -281 370 -338 124 -50 202 -62 323 -53 122 9 176 20 249 50
92 39 225 151 298 251 57 77 87 205 87 367 0 165 -118 405 -253 514 -44 36
-148 91 -229 122 -34 12 -54 29 -74 58 -26 39 -26 43 -20 146 4 58 18 201 31
316 13 116 27 254 31 307 l7 97 39 15 c48 20 44 21 51 -11 13 -59 21 -60 81
-9 31 26 56 54 56 61 0 15 27 24 135 50 384 91 611 156 746 213 26 11 85 45
133 76 94 61 110 84 142 207 13 51 13 64 -6 153 -29 144 -31 139 34 134 106
-9 240 -97 326 -213 57 -77 131 -95 190 -47 l23 19 -39 79 c-21 43 -55 95 -76
115 -41 39 -155 89 -261 114 -171 40 -271 124 -281 237 -9 94 -97 616 -113
663 -34 107 -128 193 -249 229 -32 10 -64 19 -70 21 -6 2 -15 29 -18 59 -8 61
-13 64 -85 50 -24 -5 -29 -10 -21 -20 6 -7 10 -32 8 -56 -4 -50 5 -47 -227
-73 -78 -9 -187 -22 -241 -29 -79 -10 -101 -10 -115 0 -14 11 -22 9 -46 -8
-21 -16 -37 -20 -68 -15 -29 3 -44 1 -53 -10 -8 -10 -28 -14 -67 -12 -31 1
-68 -3 -82 -9 -15 -6 -44 -14 -65 -18 -22 -3 -45 -11 -52 -17 -10 -8 -48 24
-159 135 l-145 145 19 84 c18 83 19 85 69 119 76 52 263 220 320 287 143 167
615 683 625 683 5 0 14 10 18 23 5 12 50 66 100 120 77 82 91 102 91 131 0 18
-6 38 -12 44 -31 25 -145 63 -230 77 -95 16 -331 27 -403 19z m-753 -1664 c29
-72 30 -78 18 -135 -6 -33 -13 -62 -16 -64 -6 -6 -153 123 -153 136 -2 30 40
101 70 121 19 12 38 20 43 19 5 -2 22 -36 38 -77z m348 -239 c-8 -5 -53 -11
-100 -15 l-85 -6 -24 66 c-18 50 -22 75 -16 111 12 83 10 84 129 -37 85 -85
107 -113 96 -119z m-720 167 c0 -7 -21 -79 -46 -160 l-47 -147 -49 -6 c-27 -4
-51 -5 -52 -4 -2 2 3 33 11 69 8 36 22 103 32 150 l18 85 59 11 c32 7 62 12
67 13 4 1 7 -5 7 -11z m96 -54 c3 -13 -12 -63 -39 -125 -39 -92 -47 -104 -70
-107 l-27 -3 36 98 c20 54 43 120 52 146 15 44 17 47 30 30 7 -10 15 -28 18
-39z m-276 27 c0 -5 -5 -22 -11 -38 -6 -15 -15 -53 -20 -83 -6 -30 -17 -85
-25 -121 l-15 -67 -42 -6 c-23 -4 -79 -18 -125 -32 -46 -14 -85 -24 -87 -22
-1 1 -21 68 -43 148 -27 97 -37 147 -30 151 19 12 214 51 391 78 4 0 7 -3 7
-8z m540 -165 c0 -19 -88 -50 -106 -38 -6 4 -26 35 -43 69 -30 60 -38 93 -25
106 8 7 174 -124 174 -137z m-1016 22 c44 -156 64 -244 57 -251 -4 -4 -21 -11
-39 -16 -29 -9 -32 -7 -41 22 -64 206 -82 270 -77 274 4 5 55 19 78 22 4 1 14
-23 22 -51z m828 -33 c12 -24 20 -46 17 -48 -9 -8 -100 -16 -97 -9 2 4 12 29
23 55 11 26 23 47 28 47 4 0 17 -20 29 -45z m-953 -117 c42 -125 44 -148 16
-148 -20 0 -75 177 -75 241 0 31 4 49 9 44 5 -6 27 -67 50 -137z m-149 92 c0
-48 -14 -51 -35 -10 -18 34 -13 50 16 50 16 0 19 -7 19 -40z m-495 -104 c-29
-23 -45 -25 -45 -5 0 10 36 27 60 28 9 1 3 -9 -15 -23z m461 -71 c21 -50 18
-92 -7 -105 -11 -7 -23 -9 -26 -7 -5 6 8 147 14 147 2 0 11 -16 19 -35z m1799
-1781 c-60 -315 -105 -537 -109 -542 -3 -2 -52 -4 -110 -3 -121 2 -197 -14
-298 -64 l-67 -33 -66 81 c-36 44 -64 82 -62 83 2 2 84 15 183 29 217 31 278
47 300 80 15 23 15 27 0 49 -19 30 -104 95 -213 165 -44 28 -86 57 -92 64 -8
10 50 36 257 116 148 56 274 106 282 111 8 5 16 7 18 5 2 -1 -9 -65 -23 -141z
m141 129 c8 -14 2 -44 -24 -126 -19 -60 -36 -107 -38 -105 -2 3 5 56 16 119
11 63 20 117 20 122 0 13 15 7 26 -10z m-5 -305 c-11 -95 -25 -235 -32 -310
-7 -76 -16 -138 -20 -138 -5 0 -9 96 -9 213 l0 212 37 135 c47 168 53 140 24
-112z m-79 -235 c-2 -104 -5 -189 -6 -190 -8 -8 -66 24 -66 35 0 28 64 342 69
342 3 0 5 -84 3 -187z m-3385 -289 c-3 -3 -161 -34 -175 -34 -2 0 -2 10 0 23
3 20 11 23 88 32 69 8 86 7 88 -3 2 -8 2 -16 -1 -18z"/>
</g>
</svg>
