<?xml version="1.0" standalone="no"?>
<!DOCTYPE svg PUBLIC "-//W3C//DTD SVG 20010904//EN"
 "http://www.w3.org/TR/2001/REC-SVG-20010904/DTD/svg10.dtd">
<svg version="1.0" xmlns="http://www.w3.org/2000/svg"
 width="640.000000pt" height="1280.000000pt" viewBox="0 0 640.000000 1280.000000"
 preserveAspectRatio="xMidYMid meet">
<g transform="translate(0.000000,1280.000000) scale(0.100000,-0.100000)"
fill="#000000" stroke="none">
<path style="fill:skyblue" d="M3070 12794 c-191 -23 -492 -99 -547 -139 -17 -13 -18 -35 -18 -367
1 -346 8 -481 41 -708 70 -488 224 -825 432 -947 l45 -27 -6 -1343 c-4 -888
-3 -1343 4 -1343 6 0 8 -103 4 -297 -2 -164 -7 -590 -10 -948 -9 -1221 -27
-1712 -62 -1745 -4 -5 -53 -22 -109 -39 l-101 -31 -280 0 -280 0 -6 -1462 c-4
-805 -7 -1852 -7 -2328 l0 -866 113 -36 c196 -64 397 -111 642 -150 46 -7 166
-12 285 -12 177 0 226 4 355 27 183 32 349 74 515 130 l125 42 2 140 c7 610
25 4517 20 4522 -4 3 -154 9 -334 13 -380 7 -378 7 -405 85 -16 46 -17 144
-18 1217 0 862 -3 1169 -11 1174 -9 5 -10 235 -6 893 4 487 3 1216 -1 1619
l-7 733 46 30 c177 113 301 364 363 729 35 209 41 299 41 645 0 341 -18 679
-37 691 -22 14 -190 56 -295 75 -113 20 -405 33 -493 23z m530 -543 l85 -6 -1
-100 c-1 -229 -95 -373 -282 -436 -82 -28 -266 -33 -347 -10 -154 43 -251 144
-295 305 -13 47 -20 219 -10 229 3 3 77 12 165 21 158 14 475 13 685 -3z"/>
</g>
</svg>
