<?xml version="1.0" standalone="no"?>
<!DOCTYPE svg PUBLIC "-//W3C//DTD SVG 20010904//EN"
 "http://www.w3.org/TR/2001/REC-SVG-20010904/DTD/svg10.dtd">
<svg version="1.0" xmlns="http://www.w3.org/2000/svg"
 width="1280.000000pt" height="884.000000pt" viewBox="0 0 1280.000000 884.000000"
 preserveAspectRatio="xMidYMid meet">
<g transform="translate(0.000000,884.000000) scale(0.100000,-0.100000)"
fill="#000000" stroke="none">
<path style="fill:skyblue" d="M5730 8834 c-193 -19 -377 -56 -488 -100 -37 -15 -119 -53 -183 -85
-685 -341 -1394 -956 -1841 -1594 -87 -125 -163 -255 -266 -455 -52 -102 -97
-187 -98 -189 -2 -2 -65 55 -141 126 -354 334 -491 427 -693 470 -119 25 -416
25 -553 0 -167 -31 -337 -94 -472 -175 -159 -95 -369 -282 -496 -442 -126
-160 -300 -451 -374 -628 -38 -92 -86 -279 -107 -417 -19 -133 -16 -546 6
-705 55 -397 168 -748 313 -967 67 -101 442 -400 890 -711 196 -136 353 -232
493 -302 69 -34 214 -118 323 -187 110 -68 222 -135 250 -147 29 -13 72 -33
97 -44 88 -38 272 -192 498 -415 175 -173 253 -268 299 -364 19 -40 64 -107
100 -150 71 -84 78 -97 98 -194 17 -80 43 -150 125 -334 34 -76 72 -172 86
-213 28 -88 95 -191 182 -284 108 -114 139 -120 842 -173 494 -37 817 -65
1030 -90 358 -42 745 -58 1440 -59 699 -1 694 -2 816 125 173 183 258 374 484
1104 122 394 173 541 230 665 22 47 58 155 80 240 23 85 69 225 102 310 102
262 134 392 162 660 21 195 42 260 84 260 30 0 61 43 72 99 18 97 58 171 195
356 190 258 501 583 736 771 36 29 133 98 215 154 82 56 171 120 198 143 71
59 188 127 381 222 186 90 337 153 390 162 125 20 206 -75 446 -526 122 -229
173 -299 239 -325 61 -24 275 -41 355 -28 101 17 146 45 274 175 239 242 258
303 248 782 -10 438 -29 525 -206 918 -189 420 -270 547 -381 596 -100 44
-344 51 -520 15 -134 -28 -622 -278 -785 -403 -131 -100 -190 -182 -206 -283
-14 -89 -27 -117 -58 -124 -119 -26 -416 -204 -751 -452 -167 -124 -284 -220
-465 -383 -261 -235 -322 -279 -383 -279 -68 0 -81 52 -92 375 -9 274 -25 420
-66 625 -109 548 -376 1122 -697 1505 -298 354 -1116 1014 -1503 1212 -159 81
-341 130 -568 152 -101 10 -302 12 -386 5z m240 -660 c224 -51 458 -164 755
-365 168 -113 294 -219 462 -388 335 -337 643 -724 786 -991 48 -89 123 -277
115 -286 -3 -2 -91 41 -196 97 -580 307 -1128 466 -1844 535 -224 21 -749 30
-968 15 -570 -38 -1049 -138 -1345 -280 -55 -26 -142 -74 -194 -105 -51 -31
-95 -55 -97 -53 -4 4 235 363 286 427 165 213 331 391 535 574 311 280 353
313 542 420 56 31 132 84 170 118 37 33 93 75 123 92 84 49 247 121 352 154
81 26 118 35 238 56 43 8 212 -4 280 -20z m-4361 -2059 c248 -66 503 -345 721
-790 157 -318 156 -313 152 -1071 -3 -633 3 -761 39 -882 12 -37 70 -161 131
-275 77 -145 108 -211 100 -219 -45 -45 -609 283 -1130 659 -287 206 -451 352
-621 550 -210 244 -272 414 -256 703 17 318 85 603 188 792 123 225 369 479
515 533 49 18 95 18 161 0z m2481 -845 c0 -13 -20 -13 -40 0 -12 8 -9 10 13
10 15 0 27 -4 27 -10z"/>
</g>
</svg>
