<?xml version="1.0" standalone="no"?>
<!DOCTYPE svg PUBLIC "-//W3C//DTD SVG 20010904//EN"
 "http://www.w3.org/TR/2001/REC-SVG-20010904/DTD/svg10.dtd">
<svg version="1.0" xmlns="http://www.w3.org/2000/svg"
 width="1280.000000pt" height="880.000000pt" viewBox="0 0 1280.000000 880.000000"
 preserveAspectRatio="xMidYMid meet">
<g transform="translate(0.000000,880.000000) scale(0.100000,-0.100000)"
fill="skyblue" stroke="none">
<path d="M7065 8787 c-16 -8 -363 -191 -770 -407 -407 -215 -1959 -1038 -3450
-1827 -1885 -999 -2721 -1447 -2747 -1472 -200 -192 -75 -1067 243 -1704 92
-185 210 -342 303 -406 23 -16 730 -417 1571 -891 842 -474 2014 -1135 2605
-1468 591 -334 1086 -608 1100 -609 19 -3 803 519 3440 2290 2128 1429 3420
2302 3429 2318 20 36 7 93 -34 137 -28 31 -67 51 -243 122 l-211 85 -15 40
c-47 124 -98 348 -116 510 -15 137 -12 422 6 542 26 179 5 154 286 332 135 86
256 165 267 175 47 42 8 166 -61 199 -25 12 -2340 875 -3533 1317 -71 27 -537
200 -1035 385 -624 233 -921 339 -955 342 -29 2 -62 -2 -80 -10z"/>
</g>
</svg>
